<mxfile host="Electron" modified="2025-04-10T08:16:23.020Z" agent="Mozilla/5.0 (Windows NT 10.0; Win64; x64) AppleWebKit/537.36 (KHTML, like Gecko) draw.io/24.5.3 Chrome/124.0.6367.207 Electron/30.0.6 Safari/537.36" etag="2z9HkCzBwF4JcpyA4KfR" version="24.5.3" type="device">
  <diagram name="Seite-1" id="tQ0ftKxHk6KphrgHs4fO">
    <mxGraphModel dx="1430" dy="858" grid="1" gridSize="10" guides="1" tooltips="1" connect="1" arrows="1" fold="1" page="1" pageScale="1" pageWidth="827" pageHeight="1169" math="0" shadow="0">
      <root>
        <mxCell id="0" />
        <mxCell id="1" parent="0" />
        <mxCell id="nO603GM5clAHthOOzISG-5" value="" style="endArrow=blockThin;startArrow=none;html=1;rounded=0;startFill=0;endFill=1;exitX=1;exitY=0;exitDx=0;exitDy=0;fillColor=#dae8fc;strokeColor=#6c8ebf;" parent="1" source="WxyFIOTcboJ3awtWdt5L-8" edge="1">
          <mxGeometry width="50" height="50" relative="1" as="geometry">
            <mxPoint x="300" y="530" as="sourcePoint" />
            <mxPoint x="300" y="500" as="targetPoint" />
          </mxGeometry>
        </mxCell>
        <mxCell id="WxyFIOTcboJ3awtWdt5L-1" value="Beziehungsebene" style="shape=trapezoid;perimeter=trapezoidPerimeter;whiteSpace=wrap;html=1;fixedSize=1;fillColor=#fff2cc;strokeColor=#d6b656;" vertex="1" parent="1">
          <mxGeometry x="320" y="620" width="160" height="20" as="geometry" />
        </mxCell>
        <mxCell id="WxyFIOTcboJ3awtWdt5L-2" value="Selbstkundgabe" style="shape=trapezoid;perimeter=trapezoidPerimeter;whiteSpace=wrap;html=1;fixedSize=1;rotation=-90;flipH=1;direction=west;fillColor=#d5e8d4;strokeColor=#82b366;" vertex="1" parent="1">
          <mxGeometry x="250" y="550" width="160" height="20" as="geometry" />
        </mxCell>
        <mxCell id="WxyFIOTcboJ3awtWdt5L-3" value="Appellebene" style="shape=trapezoid;perimeter=trapezoidPerimeter;whiteSpace=wrap;html=1;fixedSize=1;rotation=90;direction=west;fillColor=#f8cecc;strokeColor=#b85450;" vertex="1" parent="1">
          <mxGeometry x="390" y="550" width="160" height="20" as="geometry" />
        </mxCell>
        <mxCell id="WxyFIOTcboJ3awtWdt5L-4" value="Sachebene" style="shape=trapezoid;perimeter=trapezoidPerimeter;whiteSpace=wrap;html=1;fixedSize=1;rotation=0;flipV=1;fillColor=#dae8fc;strokeColor=#6c8ebf;" vertex="1" parent="1">
          <mxGeometry x="320" y="480" width="160" height="20" as="geometry" />
        </mxCell>
        <mxCell id="WxyFIOTcboJ3awtWdt5L-5" value="Nachricht" style="text;html=1;align=center;verticalAlign=middle;whiteSpace=wrap;rounded=0;" vertex="1" parent="1">
          <mxGeometry x="370" y="545" width="60" height="30" as="geometry" />
        </mxCell>
        <mxCell id="WxyFIOTcboJ3awtWdt5L-7" value="EmpfÃ¤nger" style="text;html=1;align=center;verticalAlign=middle;whiteSpace=wrap;rounded=0;" vertex="1" parent="1">
          <mxGeometry x="540" y="545" width="70" height="30" as="geometry" />
        </mxCell>
        <mxCell id="WxyFIOTcboJ3awtWdt5L-8" value="Sender" style="text;html=1;align=center;verticalAlign=middle;whiteSpace=wrap;rounded=0;" vertex="1" parent="1">
          <mxGeometry x="210" y="545" width="50" height="30" as="geometry" />
        </mxCell>
        <mxCell id="WxyFIOTcboJ3awtWdt5L-9" value="" style="endArrow=blockThin;startArrow=none;html=1;rounded=0;startFill=0;endFill=1;exitX=1;exitY=0.25;exitDx=0;exitDy=0;fillColor=#f8cecc;strokeColor=#b85450;" edge="1" parent="1" source="WxyFIOTcboJ3awtWdt5L-8">
          <mxGeometry width="50" height="50" relative="1" as="geometry">
            <mxPoint x="270" y="570" as="sourcePoint" />
            <mxPoint x="300" y="540" as="targetPoint" />
          </mxGeometry>
        </mxCell>
        <mxCell id="WxyFIOTcboJ3awtWdt5L-10" value="" style="endArrow=blockThin;startArrow=none;html=1;rounded=0;startFill=0;endFill=1;fillColor=#fff2cc;strokeColor=#d6b656;exitX=1;exitY=0.75;exitDx=0;exitDy=0;" edge="1" parent="1" source="WxyFIOTcboJ3awtWdt5L-8">
          <mxGeometry width="50" height="50" relative="1" as="geometry">
            <mxPoint x="260" y="560" as="sourcePoint" />
            <mxPoint x="300" y="580" as="targetPoint" />
          </mxGeometry>
        </mxCell>
        <mxCell id="WxyFIOTcboJ3awtWdt5L-11" value="" style="endArrow=blockThin;startArrow=none;html=1;rounded=0;startFill=0;endFill=1;fillColor=#d5e8d4;strokeColor=#82b366;exitX=1;exitY=1;exitDx=0;exitDy=0;" edge="1" parent="1" source="WxyFIOTcboJ3awtWdt5L-8">
          <mxGeometry width="50" height="50" relative="1" as="geometry">
            <mxPoint x="260" y="560" as="sourcePoint" />
            <mxPoint x="300" y="620" as="targetPoint" />
          </mxGeometry>
        </mxCell>
        <mxCell id="WxyFIOTcboJ3awtWdt5L-12" value="" style="endArrow=blockThin;startArrow=none;html=1;rounded=0;startFill=0;endFill=1;fillColor=#dae8fc;strokeColor=#6c8ebf;entryX=0;entryY=0;entryDx=0;entryDy=0;" edge="1" parent="1" target="WxyFIOTcboJ3awtWdt5L-7">
          <mxGeometry width="50" height="50" relative="1" as="geometry">
            <mxPoint x="500" y="500" as="sourcePoint" />
            <mxPoint x="600" y="380" as="targetPoint" />
          </mxGeometry>
        </mxCell>
        <mxCell id="WxyFIOTcboJ3awtWdt5L-13" value="" style="endArrow=blockThin;startArrow=none;html=1;rounded=0;startFill=0;endFill=1;fillColor=#f8cecc;strokeColor=#b85450;entryX=0;entryY=0.167;entryDx=0;entryDy=0;entryPerimeter=0;" edge="1" parent="1" target="WxyFIOTcboJ3awtWdt5L-7">
          <mxGeometry width="50" height="50" relative="1" as="geometry">
            <mxPoint x="500" y="540" as="sourcePoint" />
            <mxPoint x="530" y="510" as="targetPoint" />
          </mxGeometry>
        </mxCell>
        <mxCell id="WxyFIOTcboJ3awtWdt5L-14" value="" style="endArrow=blockThin;startArrow=none;html=1;rounded=0;startFill=0;endFill=1;fillColor=#fff2cc;strokeColor=#d6b656;entryX=0;entryY=0.75;entryDx=0;entryDy=0;" edge="1" parent="1" target="WxyFIOTcboJ3awtWdt5L-7">
          <mxGeometry width="50" height="50" relative="1" as="geometry">
            <mxPoint x="500" y="580" as="sourcePoint" />
            <mxPoint x="550" y="630" as="targetPoint" />
          </mxGeometry>
        </mxCell>
        <mxCell id="WxyFIOTcboJ3awtWdt5L-15" value="" style="endArrow=blockThin;startArrow=none;html=1;rounded=0;startFill=0;endFill=1;fillColor=#d5e8d4;strokeColor=#82b366;entryX=0;entryY=1;entryDx=0;entryDy=0;" edge="1" parent="1" target="WxyFIOTcboJ3awtWdt5L-7">
          <mxGeometry width="50" height="50" relative="1" as="geometry">
            <mxPoint x="500" y="620" as="sourcePoint" />
            <mxPoint x="550" y="680" as="targetPoint" />
          </mxGeometry>
        </mxCell>
      </root>
    </mxGraphModel>
  </diagram>
</mxfile>
